<svg id="Layer_1" data-name="Layer 1" xmlns="http://www.w3.org/2000/svg" viewBox="0 0 512 512"><defs><style>.cls-1{fill:#fdffb7;}</style></defs><path class="cls-1" d="M262.3,192.47A63.53,63.53,0,1,0,325.82,256,63.61,63.61,0,0,0,262.3,192.47Z"/><path class="cls-1" d="M481.5,153.1c2.72-17.2-.54-32.06-9.67-44.18h0c-8.85-11.73-22.52-18.8-40.67-21.13A36,36,0,0,0,360,96.32c-5.65,1.61-11.36,3.37-17.19,5.35C324.65,39.54,295.62,0,262.3,0c-33.15,0-62.06,39.18-80.19,100.78-57.88-20.34-107.62-22-129.44,8.29-8.44,11.71-10.49,27.11-6.19,45.78a36,36,0,0,0,19,66.58,35.68,35.68,0,0,0,13.36-2.56A396.59,396.59,0,0,0,109.49,256C73.57,294.55,49.88,332.61,45,362.63c-2.65,16.2,0,29.78,7.77,40.37,10.93,14.84,30.69,23.56,58.56,23.56,19.75,0,43.6-4.47,71.19-14.15C200.64,473.32,229.37,512,262.3,512c14.5,0,28.24-7.15,40.93-21.2a35.65,35.65,0,0,0,14.06,2.86,36,36,0,0,0,19.8-66.07c2-5.68,3.84-11.52,5.6-17.58,30.18,10.5,57.89,16.37,80.15,16.37a96.48,96.48,0,0,0,20.4-2c13.93-3,23.84-9.42,29.47-19,22.34-38.05,2.08-91-54.66-149.63C454.35,218.18,476.85,182.48,481.5,153.1ZM364.39,112.67a35.39,35.39,0,0,0,2,3.29,35.75,35.75,0,0,0,23.25,14.82,36.86,36.86,0,0,0,6.34.55c.15,0,.3,0,.45,0,.48,0,1-.07,1.43-.1a37,37,0,0,0,4.94-.59c.68-.13,1.34-.3,2-.47a38.57,38.57,0,0,0,4.3-1.41c.61-.25,1.23-.46,1.83-.74a36.05,36.05,0,0,0,5.5-3.11s.07,0,.11-.06a34.9,34.9,0,0,0,5-4.29c.78-.8,1.43-1.69,2.13-2.54s1.32-1.57,1.89-2.41a32.76,32.76,0,0,0,2-3.44c.38-.72.77-1.42,1.09-2.17a34.16,34.16,0,0,0,1.44-3.85c.12-.4.32-.77.43-1.18,12.63,1.88,21.9,6.67,27.62,14.27,6.34,8.39,8.45,18.61,6.44,31.24-4.09,25.81-25.1,58.51-58.7,93.28q-20.18-19.41-45.41-39.45a538.89,538.89,0,0,0-13.38-86.18C353,116.1,358.74,114.27,364.39,112.67Zm-2.5,114.78c11.49,9.58,22.14,19.1,31.83,28.46-9.77,9.42-20.45,19-31.87,28.51.39-9.38.65-18.85.65-28.42S362.27,236.82,361.89,227.45Zm-19.7-37.3q-10.83-8.1-22.42-16.22c-13.06-9.14-26.47-17.86-40-26A494.52,494.52,0,0,1,331.26,124,505.36,505.36,0,0,1,342.19,190.15ZM262.3,17.07c23.69,0,48.38,33.47,64.63,90.29a523.85,523.85,0,0,0-64.44,30.53,545.91,545.91,0,0,0-64.62-31.19C214.13,50.29,238.69,17.07,262.3,17.07ZM193.55,123.13a512.31,512.31,0,0,1,51.69,24.64c-13.51,8.08-27,16.8-40.4,26.16-7.7,5.39-15.14,10.93-22.45,16.52A506.66,506.66,0,0,1,193.55,123.13Zm-100.86,86a32.9,32.9,0,0,0,2.41-3,36.69,36.69,0,0,0,3.54-6.31c.16-.38.23-.78.37-1.16a35.33,35.33,0,0,0,1.8-5.62c0-.13,0-.28,0-.42a35.63,35.63,0,0,0-4.66-26.12c0-.06-.06-.13-.11-.19a36.26,36.26,0,0,0-3.73-4.84c-.23-.25-.39-.54-.62-.78a36.66,36.66,0,0,0-5.48-4.74,35.36,35.36,0,0,0-5.88-3.28c-.93-.42-1.87-.68-2.82-1a31.28,31.28,0,0,0-3.28-1.05,35.15,35.15,0,0,0-3.64-.65c-.91-.13-1.8-.25-2.72-.31a36.09,36.09,0,0,0-3.75,0c-.48,0-1,0-1.42,0-2.75-13-1.48-23.2,3.77-30.48,15.65-21.75,57.64-20.94,111.18-1.91A536.78,536.78,0,0,0,164,205c-15.39,12.68-29.7,25.65-42.69,38.68A380.57,380.57,0,0,1,92.69,209.1Zm70,74.51q-15.81-13.69-29.7-27.74c9.2-9.19,19.16-18.38,29.7-27.48q-.56,13.58-.56,27.61T162.68,283.61ZM66.46,392.88c-5-6.75-6.54-16-4.66-27.49,4.42-27,26.14-61.67,59.37-97.3a572.19,572.19,0,0,0,42.87,39,534.7,534.7,0,0,0,13.86,88.57C124.34,415,83,415.36,66.46,392.88ZM182.39,321.6c7.31,5.58,14.77,11.09,22.45,16.47,13.4,9.37,27.1,18.13,40.89,26.25a514.57,514.57,0,0,1-52,25.23A504.85,504.85,0,0,1,182.39,321.6ZM321.17,421.84c-.6-.07-1.16,0-1.75,0s-1.4-.21-2.12-.21-1.15.14-1.73.18a31.62,31.62,0,0,0-4.49.45c-.77.13-1.53.3-2.28.48a34.83,34.83,0,0,0-4.84,1.51c-.62.25-1.2.54-1.8.82a36.1,36.1,0,0,0-4.41,2.4c-.66.43-1.26.92-1.89,1.4a35.82,35.82,0,0,0-3.49,2.88c-.77.74-1.43,1.56-2.12,2.36a35,35,0,0,0-2.4,2.91,36.61,36.61,0,0,0-2.07,3.53c-.48.89-1,1.73-1.43,2.65a33.78,33.78,0,0,0-1.59,4.77c-.21.74-.52,1.43-.68,2.18a36.45,36.45,0,0,0-.81,7.51,35.36,35.36,0,0,0,.67,6.68c.19,1,.5,1.9.77,2.85a32.51,32.51,0,0,0,1.06,3.39,34.49,34.49,0,0,0,1.48,3.21c.45.86.88,1.72,1.38,2.54a35.15,35.15,0,0,0,2.14,3.08c.28.37.48.78.78,1.13-9,9.57-18.13,14.41-27.25,14.41-23.44,0-47.82-32.76-64.07-88.44a519.12,519.12,0,0,0,64.94-32.21,555.05,555.05,0,0,0,63.58,29.84C325,410.22,323.14,416.14,321.17,421.84Zm9.89-34.29a520.59,520.59,0,0,1-50.86-23.46c12.76-7.87,25.91-16.46,39.57-26,7.69-5.38,15.06-10.79,22.29-16.21A509.61,509.61,0,0,1,331.06,387.55ZM344,298.89q-16.19,12.66-34,25.19c-16,11.22-31.79,21.3-47.22,30.45-15.82-9-31.94-19.11-48.14-30.45-11.84-8.29-23.2-16.87-34.11-25.61-.85-13.64-1.33-27.79-1.33-42.47s.48-28.83,1.33-42.47c10.89-8.72,22.25-17.31,34.11-25.62,15.86-11.1,31.89-21.19,47.86-30.39,15.64,9.14,31.53,19.21,47.5,30.39q18,12.61,34.08,25.19c.87,13.77,1.37,28.06,1.37,42.9C345.43,270.55,344.91,284.87,344,298.89Zm114,97.85c-3.11,5.31-9.3,9-18.37,11C420,412,387,407.45,347.15,393.54a541.23,541.23,0,0,0,13.33-86c16.6-13.24,31.76-26.49,45.3-39.58C455.7,319.92,475.74,366.52,458,396.74Z"/></svg>